<mxfile host="app.diagrams.net" agent="Mozilla/5.0 (Windows NT 10.0; Win64; x64) AppleWebKit/537.36 (KHTML, like Gecko) Chrome/134.0.0.0 Safari/537.36" version="26.1.2">
  <diagram name="Page-1" id="iKAhnt2o-lP2n03lziH4">
    <mxGraphModel dx="1100" dy="543" grid="1" gridSize="10" guides="1" tooltips="1" connect="1" arrows="1" fold="1" page="1" pageScale="1" pageWidth="850" pageHeight="1100" math="0" shadow="0">
      <root>
        <mxCell id="0" />
        <mxCell id="1" parent="0" />
        <mxCell id="R_Sm-iHpQWe-pDz_NzUd-2" value="log-in" style="rhombus;whiteSpace=wrap;html=1;" vertex="1" parent="1">
          <mxGeometry x="380" y="30" width="110" height="110" as="geometry" />
        </mxCell>
        <mxCell id="R_Sm-iHpQWe-pDz_NzUd-3" value="" style="endArrow=none;html=1;rounded=0;exitX=0.5;exitY=1;exitDx=0;exitDy=0;" edge="1" parent="1" source="R_Sm-iHpQWe-pDz_NzUd-2">
          <mxGeometry width="50" height="50" relative="1" as="geometry">
            <mxPoint x="400" y="450" as="sourcePoint" />
            <mxPoint x="435" y="240.0000000000001" as="targetPoint" />
          </mxGeometry>
        </mxCell>
        <mxCell id="R_Sm-iHpQWe-pDz_NzUd-4" value="Yes" style="edgeLabel;html=1;align=center;verticalAlign=middle;resizable=0;points=[];" vertex="1" connectable="0" parent="R_Sm-iHpQWe-pDz_NzUd-3">
          <mxGeometry x="0.1125" y="2" relative="1" as="geometry">
            <mxPoint as="offset" />
          </mxGeometry>
        </mxCell>
        <mxCell id="R_Sm-iHpQWe-pDz_NzUd-14" value="" style="endArrow=none;html=1;rounded=0;" edge="1" parent="1" target="R_Sm-iHpQWe-pDz_NzUd-40">
          <mxGeometry width="50" height="50" relative="1" as="geometry">
            <mxPoint x="630" y="269.44" as="sourcePoint" />
            <mxPoint x="720" y="270" as="targetPoint" />
          </mxGeometry>
        </mxCell>
        <mxCell id="R_Sm-iHpQWe-pDz_NzUd-34" value="No" style="edgeLabel;html=1;align=center;verticalAlign=middle;resizable=0;points=[];" vertex="1" connectable="0" parent="R_Sm-iHpQWe-pDz_NzUd-14">
          <mxGeometry x="0.2544" relative="1" as="geometry">
            <mxPoint as="offset" />
          </mxGeometry>
        </mxCell>
        <mxCell id="R_Sm-iHpQWe-pDz_NzUd-16" value="member?" style="rhombus;whiteSpace=wrap;html=1;" vertex="1" parent="1">
          <mxGeometry x="230" y="232" width="80" height="80" as="geometry" />
        </mxCell>
        <mxCell id="R_Sm-iHpQWe-pDz_NzUd-19" value="" style="endArrow=none;html=1;rounded=0;entryX=0.5;entryY=1;entryDx=0;entryDy=0;" edge="1" parent="1" source="R_Sm-iHpQWe-pDz_NzUd-21" target="R_Sm-iHpQWe-pDz_NzUd-16">
          <mxGeometry width="50" height="50" relative="1" as="geometry">
            <mxPoint x="30" y="390" as="sourcePoint" />
            <mxPoint x="210" y="390" as="targetPoint" />
          </mxGeometry>
        </mxCell>
        <mxCell id="R_Sm-iHpQWe-pDz_NzUd-20" value="Yes" style="edgeLabel;html=1;align=center;verticalAlign=middle;resizable=0;points=[];" vertex="1" connectable="0" parent="R_Sm-iHpQWe-pDz_NzUd-19">
          <mxGeometry x="-0.0556" y="2" relative="1" as="geometry">
            <mxPoint as="offset" />
          </mxGeometry>
        </mxCell>
        <mxCell id="R_Sm-iHpQWe-pDz_NzUd-21" value="&lt;div&gt;Able to see authors of&lt;/div&gt;Messages/Post" style="shape=parallelogram;perimeter=parallelogramPerimeter;whiteSpace=wrap;html=1;fixedSize=1;" vertex="1" parent="1">
          <mxGeometry x="185" y="390" width="170" height="60" as="geometry" />
        </mxCell>
        <mxCell id="R_Sm-iHpQWe-pDz_NzUd-22" value="" style="endArrow=none;html=1;rounded=0;exitX=1;exitY=0.5;exitDx=0;exitDy=0;entryX=0;entryY=0.5;entryDx=0;entryDy=0;" edge="1" parent="1" source="R_Sm-iHpQWe-pDz_NzUd-25" target="R_Sm-iHpQWe-pDz_NzUd-16">
          <mxGeometry width="50" height="50" relative="1" as="geometry">
            <mxPoint x="140" y="380" as="sourcePoint" />
            <mxPoint x="220" y="420" as="targetPoint" />
          </mxGeometry>
        </mxCell>
        <mxCell id="R_Sm-iHpQWe-pDz_NzUd-23" value="No" style="edgeLabel;html=1;align=center;verticalAlign=middle;resizable=0;points=[];" vertex="1" connectable="0" parent="R_Sm-iHpQWe-pDz_NzUd-22">
          <mxGeometry x="0.2333" y="-1" relative="1" as="geometry">
            <mxPoint as="offset" />
          </mxGeometry>
        </mxCell>
        <mxCell id="R_Sm-iHpQWe-pDz_NzUd-25" value="Only see authors of messages/post as anonymous" style="shape=parallelogram;perimeter=parallelogramPerimeter;whiteSpace=wrap;html=1;fixedSize=1;" vertex="1" parent="1">
          <mxGeometry x="10" y="242" width="160" height="60" as="geometry" />
        </mxCell>
        <mxCell id="R_Sm-iHpQWe-pDz_NzUd-26" value="admin?" style="rhombus;whiteSpace=wrap;html=1;" vertex="1" parent="1">
          <mxGeometry x="550" y="232" width="80" height="80" as="geometry" />
        </mxCell>
        <mxCell id="R_Sm-iHpQWe-pDz_NzUd-27" value="" style="endArrow=none;html=1;rounded=0;exitX=0.5;exitY=0;exitDx=0;exitDy=0;" edge="1" parent="1" source="R_Sm-iHpQWe-pDz_NzUd-38">
          <mxGeometry width="50" height="50" relative="1" as="geometry">
            <mxPoint x="589.44" y="390" as="sourcePoint" />
            <mxPoint x="589.44" y="310" as="targetPoint" />
          </mxGeometry>
        </mxCell>
        <mxCell id="R_Sm-iHpQWe-pDz_NzUd-36" value="Yes" style="edgeLabel;html=1;align=center;verticalAlign=middle;resizable=0;points=[];" vertex="1" connectable="0" parent="R_Sm-iHpQWe-pDz_NzUd-27">
          <mxGeometry x="0.05" y="-5" relative="1" as="geometry">
            <mxPoint as="offset" />
          </mxGeometry>
        </mxCell>
        <mxCell id="R_Sm-iHpQWe-pDz_NzUd-38" value="Able to delete Messages/Post and users" style="shape=parallelogram;perimeter=parallelogramPerimeter;whiteSpace=wrap;html=1;fixedSize=1;" vertex="1" parent="1">
          <mxGeometry x="522.5" y="390" width="135" height="60" as="geometry" />
        </mxCell>
        <mxCell id="R_Sm-iHpQWe-pDz_NzUd-40" value="Not able to delete messages/post or delete users" style="shape=parallelogram;perimeter=parallelogramPerimeter;whiteSpace=wrap;html=1;fixedSize=1;" vertex="1" parent="1">
          <mxGeometry x="730" y="240" width="170" height="60" as="geometry" />
        </mxCell>
        <mxCell id="R_Sm-iHpQWe-pDz_NzUd-41" value="Home" style="whiteSpace=wrap;html=1;aspect=fixed;" vertex="1" parent="1">
          <mxGeometry x="397.5" y="235" width="75" height="75" as="geometry" />
        </mxCell>
        <mxCell id="R_Sm-iHpQWe-pDz_NzUd-47" value="" style="endArrow=classic;html=1;rounded=0;exitX=0.149;exitY=0.988;exitDx=0;exitDy=0;exitPerimeter=0;" edge="1" parent="1" source="R_Sm-iHpQWe-pDz_NzUd-41" target="R_Sm-iHpQWe-pDz_NzUd-48">
          <mxGeometry width="50" height="50" relative="1" as="geometry">
            <mxPoint x="450" y="510" as="sourcePoint" />
            <mxPoint x="435" y="530" as="targetPoint" />
          </mxGeometry>
        </mxCell>
        <mxCell id="R_Sm-iHpQWe-pDz_NzUd-48" value="Create Message/Post" style="rounded=1;whiteSpace=wrap;html=1;" vertex="1" parent="1">
          <mxGeometry x="250" y="520" width="120" height="60" as="geometry" />
        </mxCell>
        <mxCell id="R_Sm-iHpQWe-pDz_NzUd-50" value="Log-out" style="rhombus;whiteSpace=wrap;html=1;" vertex="1" parent="1">
          <mxGeometry x="450" y="520" width="80" height="80" as="geometry" />
        </mxCell>
        <mxCell id="R_Sm-iHpQWe-pDz_NzUd-51" value="" style="endArrow=none;html=1;rounded=0;entryX=1;entryY=0.5;entryDx=0;entryDy=0;" edge="1" parent="1" target="R_Sm-iHpQWe-pDz_NzUd-2">
          <mxGeometry width="50" height="50" relative="1" as="geometry">
            <mxPoint x="530" y="560" as="sourcePoint" />
            <mxPoint x="980" y="120" as="targetPoint" />
            <Array as="points">
              <mxPoint x="980" y="560" />
              <mxPoint x="980" y="85" />
            </Array>
          </mxGeometry>
        </mxCell>
        <mxCell id="R_Sm-iHpQWe-pDz_NzUd-52" value="" style="endArrow=none;html=1;rounded=0;entryX=0.5;entryY=0;entryDx=0;entryDy=0;exitX=1;exitY=1;exitDx=0;exitDy=0;" edge="1" parent="1" source="R_Sm-iHpQWe-pDz_NzUd-41" target="R_Sm-iHpQWe-pDz_NzUd-50">
          <mxGeometry width="50" height="50" relative="1" as="geometry">
            <mxPoint x="450" y="310" as="sourcePoint" />
            <mxPoint x="500" y="260" as="targetPoint" />
          </mxGeometry>
        </mxCell>
        <mxCell id="R_Sm-iHpQWe-pDz_NzUd-53" value="" style="endArrow=classic;html=1;rounded=0;exitX=0;exitY=0.5;exitDx=0;exitDy=0;entryX=1;entryY=0.5;entryDx=0;entryDy=0;" edge="1" parent="1" source="R_Sm-iHpQWe-pDz_NzUd-41" target="R_Sm-iHpQWe-pDz_NzUd-16">
          <mxGeometry width="50" height="50" relative="1" as="geometry">
            <mxPoint x="445" y="320" as="sourcePoint" />
            <mxPoint x="340" y="310" as="targetPoint" />
          </mxGeometry>
        </mxCell>
        <mxCell id="R_Sm-iHpQWe-pDz_NzUd-55" value="" style="endArrow=classic;html=1;rounded=0;exitX=1;exitY=0.5;exitDx=0;exitDy=0;" edge="1" parent="1" source="R_Sm-iHpQWe-pDz_NzUd-41" target="R_Sm-iHpQWe-pDz_NzUd-26">
          <mxGeometry width="50" height="50" relative="1" as="geometry">
            <mxPoint x="460" y="280" as="sourcePoint" />
            <mxPoint x="320" y="280" as="targetPoint" />
          </mxGeometry>
        </mxCell>
        <mxCell id="R_Sm-iHpQWe-pDz_NzUd-56" value="" style="endArrow=none;html=1;rounded=0;entryX=0.5;entryY=0;entryDx=0;entryDy=0;" edge="1" parent="1" target="R_Sm-iHpQWe-pDz_NzUd-25">
          <mxGeometry width="50" height="50" relative="1" as="geometry">
            <mxPoint x="420" y="235" as="sourcePoint" />
            <mxPoint x="90" y="180" as="targetPoint" />
            <Array as="points">
              <mxPoint x="420" y="180" />
              <mxPoint x="90" y="180" />
            </Array>
          </mxGeometry>
        </mxCell>
      </root>
    </mxGraphModel>
  </diagram>
</mxfile>
